<svg xmlns="http://www.w3.org/2000/svg" width="16" height="31.6" viewBox="0 0 16 31.6"><path fill="#b4fff4" d="M14.6 23.4l-2.3-3.8a19.2 19.2 0 0 0 .7-4.8v-.7c-.2-4.3-1.9-5.8-3.1-7a5.9 5.9 0 0 1-1.4-1.8H9a1 1 0 0 0 .4-.7v-.4h-1v-1c0-.1 0-.1.3-.1l.3-.2a4.3 4.3 0 0 0-.1-.5h-.1A6.8 6.8 0 0 1 8.3.6c0-.4-.1-.5-.2-.6h-.2c0 .1-.2.1-.2.6a3.6 3.6 0 0 1-.5 1.7c-.1.1-.1.2-.1.4 0 .1.1.1.3.2.2 0 .2 0 .2.1a1.1 1.1 0 0 1 .1.5.6.6 0 0 1-.1.4h-.8v.2a.9.9 0 0 0 .3.7h.5a5.9 5.9 0 0 1-1.5 2.3 9.1 9.1 0 0 0-3.1 7v.7a19.2 19.2 0 0 0 .7 4.8l-2.3 3.8L0 31.6h1.6l1.5-5.2 2.5-2.1H6a5.6 5.6 0 0 0 .1.7c0 .2.1.5 1.2.6v5.9h1.4v-5.8c1.2-.1 1.2-.4 1.3-.6a5.6 5.6 0 0 0 .1-.7h.3l2.5 2.1 1.5 5.2H16z"/></svg>